<svg id="Layer_2" data-name="Layer 2" xmlns="http://www.w3.org/2000/svg" viewBox="0 0 145 225.75">
  <defs>
    <style>
      .cls-4 {
        fill: #ff3636;
      }

      .cls-5 {
        fill: none;
        stroke: #ff3636;
        stroke-miterlimit: 10;
      }
    </style>
  </defs>
  <g id="Heatmaps">
    <g id="TotalMoves">
      <g id="TotalMovesFrame">
        <polygon id="_40" data-name="40" class="cls-5" points="80.5 176.5 80.5 172.5 76.5 172.5 76.5 168.5 68.5 168.5 68.5 172.5 64.5 172.5 64.5 176.5 60.5 176.5 60.5 180.5 64.5 180.5 64.5 184.5 68.5 184.5 68.5 188.5 76.5 188.5 76.5 184.5 80.5 184.5 80.5 180.5 84.5 180.5 84.5 176.5 80.5 176.5"/>
        <polygon id="_39" data-name="39" class="cls-5" points="100.5 164.5 100.5 160.5 96.5 160.5 96.5 156.5 88.5 156.5 88.5 160.5 84.5 160.5 84.5 164.5 80.5 164.5 80.5 168.5 84.5 168.5 84.5 172.5 88.5 172.5 88.5 176.5 96.5 176.5 96.5 172.5 100.5 172.5 100.5 168.5 104.5 168.5 104.5 164.5 100.5 164.5"/>
        <polygon id="_38" data-name="38" class="cls-5" points="80.5 152.5 80.5 148.5 76.5 148.5 76.5 144.5 68.5 144.5 68.5 148.5 64.5 148.5 64.5 152.5 60.5 152.5 60.5 156.5 64.5 156.5 64.5 160.5 68.5 160.5 68.5 164.5 76.5 164.5 76.5 160.5 80.5 160.5 80.5 156.5 84.5 156.5 84.5 152.5 80.5 152.5"/>
        <polygon id="_37" data-name="37" class="cls-5" points="60.5 164.5 60.5 160.5 56.5 160.5 56.5 156.5 48.5 156.5 48.5 160.5 44.5 160.5 44.5 164.5 40.5 164.5 40.5 168.5 44.5 168.5 44.5 172.5 48.5 172.5 48.5 176.5 56.5 176.5 56.5 172.5 60.5 172.5 60.5 168.5 64.5 168.5 64.5 164.5 60.5 164.5"/>
        <polygon id="_36" data-name="36" class="cls-5" points="120.5 152.5 120.5 148.5 116.5 148.5 116.5 144.5 108.5 144.5 108.5 148.5 104.5 148.5 104.5 152.5 100.5 152.5 100.5 156.5 104.5 156.5 104.5 160.5 108.5 160.5 108.5 164.5 116.5 164.5 116.5 160.5 120.5 160.5 120.5 156.5 124.5 156.5 124.5 152.5 120.5 152.5"/>
        <polygon id="_35" data-name="35" class="cls-5" points="100.5 140.5 100.5 136.5 96.5 136.5 96.5 132.5 88.5 132.5 88.5 136.5 84.5 136.5 84.5 140.5 80.5 140.5 80.5 144.5 84.5 144.5 84.5 148.5 88.5 148.5 88.5 152.5 96.5 152.5 96.5 148.5 100.5 148.5 100.5 144.5 104.5 144.5 104.5 140.5 100.5 140.5"/>
        <polygon id="_34" data-name="34" class="cls-5" points="80.5 128.5 80.5 124.5 76.5 124.5 76.5 120.5 68.5 120.5 68.5 124.5 64.5 124.5 64.5 128.5 60.5 128.5 60.5 132.5 64.5 132.5 64.5 136.5 68.5 136.5 68.5 140.5 76.5 140.5 76.5 136.5 80.5 136.5 80.5 132.5 84.5 132.5 84.5 128.5 80.5 128.5"/>
        <polygon id="_33" data-name="33" class="cls-5" points="60.5 140.5 60.5 136.5 56.5 136.5 56.5 132.5 48.5 132.5 48.5 136.5 44.5 136.5 44.5 140.5 40.5 140.5 40.5 144.5 44.5 144.5 44.5 148.5 48.5 148.5 48.5 152.5 56.5 152.5 56.5 148.5 60.5 148.5 60.5 144.5 64.5 144.5 64.5 140.5 60.5 140.5"/>
        <polygon id="_32" data-name="32" class="cls-5" points="40.5 152.5 40.5 148.5 36.5 148.5 36.5 144.5 28.5 144.5 28.5 148.5 24.5 148.5 24.5 152.5 20.5 152.5 20.5 156.5 24.5 156.5 24.5 160.5 28.5 160.5 28.5 164.5 36.5 164.5 36.5 160.5 40.5 160.5 40.5 156.5 44.5 156.5 44.5 152.5 40.5 152.5"/>
        <polygon id="_31" data-name="31" class="cls-5" points="140.5 140.5 140.5 136.5 136.5 136.5 136.5 132.5 128.5 132.5 128.5 136.5 124.5 136.5 124.5 140.5 120.5 140.5 120.5 144.5 124.5 144.5 124.5 148.5 128.5 148.5 128.5 152.5 136.5 152.5 136.5 148.5 140.5 148.5 140.5 144.5 144.5 144.5 144.5 140.5 140.5 140.5"/>
        <polygon id="_30" data-name="30" class="cls-5" points="120.5 128.5 120.5 124.5 116.5 124.5 116.5 120.5 108.5 120.5 108.5 124.5 104.5 124.5 104.5 128.5 100.5 128.5 100.5 132.5 104.5 132.5 104.5 136.5 108.5 136.5 108.5 140.5 116.5 140.5 116.5 136.5 120.5 136.5 120.5 132.5 124.5 132.5 124.5 128.5 120.5 128.5"/>
        <polygon id="_29" data-name="29" class="cls-5" points="100.5 116.5 100.5 112.5 96.5 112.5 96.5 108.5 88.5 108.5 88.5 112.5 84.5 112.5 84.5 116.5 80.5 116.5 80.5 120.5 84.5 120.5 84.5 124.5 88.5 124.5 88.5 128.5 96.5 128.5 96.5 124.5 100.5 124.5 100.5 120.5 104.5 120.5 104.5 116.5 100.5 116.5"/>
        <polygon id="_28" data-name="28" class="cls-5" points="80.5 104.5 80.5 100.5 76.5 100.5 76.5 96.5 68.5 96.5 68.5 100.5 64.5 100.5 64.5 104.5 60.5 104.5 60.5 108.5 64.5 108.5 64.5 112.5 68.5 112.5 68.5 116.5 76.5 116.5 76.5 112.5 80.5 112.5 80.5 108.5 84.5 108.5 84.5 104.5 80.5 104.5"/>
        <polygon id="_27" data-name="27" class="cls-5" points="60.5 116.5 60.5 112.5 56.5 112.5 56.5 108.5 48.5 108.5 48.5 112.5 44.5 112.5 44.5 116.5 40.5 116.5 40.5 120.5 44.5 120.5 44.5 124.5 48.5 124.5 48.5 128.5 56.5 128.5 56.5 124.5 60.5 124.5 60.5 120.5 64.5 120.5 64.5 116.5 60.5 116.5"/>
        <polygon id="_26" data-name="26" class="cls-5" points="40.5 128.5 40.5 124.5 36.5 124.5 36.5 120.5 28.5 120.5 28.5 124.5 24.5 124.5 24.5 128.5 20.5 128.5 20.5 132.5 24.5 132.5 24.5 136.5 28.5 136.5 28.5 140.5 36.5 140.5 36.5 136.5 40.5 136.5 40.5 132.5 44.5 132.5 44.5 128.5 40.5 128.5"/>
        <polygon id="_25" data-name="25" class="cls-5" points="20.5 140.5 20.5 136.5 16.5 136.5 16.5 132.5 8.5 132.5 8.5 136.5 4.5 136.5 4.5 140.5 .5 140.5 .5 144.5 4.5 144.5 4.5 148.5 8.5 148.5 8.5 152.5 16.5 152.5 16.5 148.5 20.5 148.5 20.5 144.5 24.5 144.5 24.5 140.5 20.5 140.5"/>
        <polygon id="_24" data-name="24" class="cls-5" points="140.5 116.5 140.5 112.5 136.5 112.5 136.5 108.5 128.5 108.5 128.5 112.5 124.5 112.5 124.5 116.5 120.5 116.5 120.5 120.5 124.5 120.5 124.5 124.5 128.5 124.5 128.5 128.5 136.5 128.5 136.5 124.5 140.5 124.5 140.5 120.5 144.5 120.5 144.5 116.5 140.5 116.5"/>
        <polygon id="_23" data-name="23" class="cls-5" points="120.5 104.5 120.5 100.5 116.5 100.5 116.5 96.5 108.5 96.5 108.5 100.5 104.5 100.5 104.5 104.5 100.5 104.5 100.5 108.5 104.5 108.5 104.5 112.5 108.5 112.5 108.5 116.5 116.5 116.5 116.5 112.5 120.5 112.5 120.5 108.5 124.5 108.5 124.5 104.5 120.5 104.5"/>
        <polygon id="_22" data-name="22" class="cls-5" points="100.5 92.5 100.5 88.5 96.5 88.5 96.5 84.5 88.5 84.5 88.5 88.5 84.5 88.5 84.5 92.5 80.5 92.5 80.5 96.5 84.5 96.5 84.5 100.5 88.5 100.5 88.5 104.5 96.5 104.5 96.5 100.5 100.5 100.5 100.5 96.5 104.5 96.5 104.5 92.5 100.5 92.5"/>
        <polygon id="_21" data-name="21" class="cls-5" points="80.5 80.5 80.5 76.5 76.5 76.5 76.5 72.5 68.5 72.5 68.5 76.5 64.5 76.5 64.5 80.5 60.5 80.5 60.5 84.5 64.5 84.5 64.5 88.5 68.5 88.5 68.5 92.5 76.5 92.5 76.5 88.5 80.5 88.5 80.5 84.5 84.5 84.5 84.5 80.5 80.5 80.5"/>
        <polygon id="_20" data-name="20" class="cls-5" points="60.5 92.5 60.5 88.5 56.5 88.5 56.5 84.5 48.5 84.5 48.5 88.5 44.5 88.5 44.5 92.5 40.5 92.5 40.5 96.5 44.5 96.5 44.5 100.5 48.5 100.5 48.5 104.5 56.5 104.5 56.5 100.5 60.5 100.5 60.5 96.5 64.5 96.5 64.5 92.5 60.5 92.5"/>
        <polygon id="_19" data-name="19" class="cls-5" points="40.5 104.5 40.5 100.5 36.5 100.5 36.5 96.5 28.5 96.5 28.5 100.5 24.5 100.5 24.5 104.5 20.5 104.5 20.5 108.5 24.5 108.5 24.5 112.5 28.5 112.5 28.5 116.5 36.5 116.5 36.5 112.5 40.5 112.5 40.5 108.5 44.5 108.5 44.5 104.5 40.5 104.5"/>
        <polygon id="_18" data-name="18" class="cls-5" points="20.5 116.5 20.5 112.5 16.5 112.5 16.5 108.5 8.5 108.5 8.5 112.5 4.5 112.5 4.5 116.5 .5 116.5 .5 120.5 4.5 120.5 4.5 124.5 8.5 124.5 8.5 128.5 16.5 128.5 16.5 124.5 20.5 124.5 20.5 120.5 24.5 120.5 24.5 116.5 20.5 116.5"/>
        <polygon id="_17" data-name="17" class="cls-5" points="140.5 92.5 140.5 88.5 136.5 88.5 136.5 84.5 128.5 84.5 128.5 88.5 124.5 88.5 124.5 92.5 120.5 92.5 120.5 96.5 124.5 96.5 124.5 100.5 128.5 100.5 128.5 104.5 136.5 104.5 136.5 100.5 140.5 100.5 140.5 96.5 144.5 96.5 144.5 92.5 140.5 92.5"/>
        <polygon id="_16" data-name="16" class="cls-5" points="120.5 80.5 120.5 76.5 116.5 76.5 116.5 72.5 108.5 72.5 108.5 76.5 104.5 76.5 104.5 80.5 100.5 80.5 100.5 84.5 104.5 84.5 104.5 88.5 108.5 88.5 108.5 92.5 116.5 92.5 116.5 88.5 120.5 88.5 120.5 84.5 124.5 84.5 124.5 80.5 120.5 80.5"/>
        <polygon id="_15" data-name="15" class="cls-5" points="100.5 68.5 100.5 64.5 96.5 64.5 96.5 60.5 88.5 60.5 88.5 64.5 84.5 64.5 84.5 68.5 80.5 68.5 80.5 72.5 84.5 72.5 84.5 76.5 88.5 76.5 88.5 80.5 96.5 80.5 96.5 76.5 100.5 76.5 100.5 72.5 104.5 72.5 104.5 68.5 100.5 68.5"/>
        <polygon id="_14" data-name="14" class="cls-5" points="80.5 56.5 80.5 52.5 76.5 52.5 76.5 48.5 68.5 48.5 68.5 52.5 64.5 52.5 64.5 56.5 60.5 56.5 60.5 60.5 64.5 60.5 64.5 64.5 68.5 64.5 68.5 68.5 76.5 68.5 76.5 64.5 80.5 64.5 80.5 60.5 84.5 60.5 84.5 56.5 80.5 56.5"/>
        <polygon id="_13" data-name="13" class="cls-5" points="60.5 68.5 60.5 64.5 56.5 64.5 56.5 60.5 48.5 60.5 48.5 64.5 44.5 64.5 44.5 68.5 40.5 68.5 40.5 72.5 44.5 72.5 44.5 76.5 48.5 76.5 48.5 80.5 56.5 80.5 56.5 76.5 60.5 76.5 60.5 72.5 64.5 72.5 64.5 68.5 60.5 68.5"/>
        <polygon id="_12" data-name="12" class="cls-5" points="40.5 80.5 40.5 76.5 36.5 76.5 36.5 72.5 28.5 72.5 28.5 76.5 24.5 76.5 24.5 80.5 20.5 80.5 20.5 84.5 24.5 84.5 24.5 88.5 28.5 88.5 28.5 92.5 36.5 92.5 36.5 88.5 40.5 88.5 40.5 84.5 44.5 84.5 44.5 80.5 40.5 80.5"/>
        <polygon id="_11" data-name="11" class="cls-5" points="20.5 92.5 20.5 88.5 16.5 88.5 16.5 84.5 8.5 84.5 8.5 88.5 4.5 88.5 4.5 92.5 .5 92.5 .5 96.5 4.5 96.5 4.5 100.5 8.5 100.5 8.5 104.5 16.5 104.5 16.5 100.5 20.5 100.5 20.5 96.5 24.5 96.5 24.5 92.5 20.5 92.5"/>
        <polygon id="_10" data-name="10" class="cls-5" points="120.5 56.5 120.5 52.5 116.5 52.5 116.5 48.5 108.5 48.5 108.5 52.5 104.5 52.5 104.5 56.5 100.5 56.5 100.5 60.5 104.5 60.5 104.5 64.5 108.5 64.5 108.5 68.5 116.5 68.5 116.5 64.5 120.5 64.5 120.5 60.5 124.5 60.5 124.5 56.5 120.5 56.5"/>
        <polygon id="_9" data-name="9" class="cls-5" points="100.5 44.5 100.5 40.5 96.5 40.5 96.5 36.5 88.5 36.5 88.5 40.5 84.5 40.5 84.5 44.5 80.5 44.5 80.5 48.5 84.5 48.5 84.5 52.5 88.5 52.5 88.5 56.5 96.5 56.5 96.5 52.5 100.5 52.5 100.5 48.5 104.5 48.5 104.5 44.5 100.5 44.5"/>
        <polygon id="_8" data-name="8" class="cls-5" points="80.5 32.5 80.5 28.5 76.5 28.5 76.5 24.5 68.5 24.5 68.5 28.5 64.5 28.5 64.5 32.5 60.5 32.5 60.5 36.5 64.5 36.5 64.5 40.5 68.5 40.5 68.5 44.5 76.5 44.5 76.5 40.5 80.5 40.5 80.5 36.5 84.5 36.5 84.5 32.5 80.5 32.5"/>
        <polygon id="_7" data-name="7" class="cls-5" points="60.5 44.5 60.5 40.5 56.5 40.5 56.5 36.5 48.5 36.5 48.5 40.5 44.5 40.5 44.5 44.5 40.5 44.5 40.5 48.5 44.5 48.5 44.5 52.5 48.5 52.5 48.5 56.5 56.5 56.5 56.5 52.5 60.5 52.5 60.5 48.5 64.5 48.5 64.5 44.5 60.5 44.5"/>
        <polygon id="_6" data-name="6" class="cls-5" points="40.5 56.5 40.5 52.5 36.5 52.5 36.5 48.5 28.5 48.5 28.5 52.5 24.5 52.5 24.5 56.5 20.5 56.5 20.5 60.5 24.5 60.5 24.5 64.5 28.5 64.5 28.5 68.5 36.5 68.5 36.5 64.5 40.5 64.5 40.5 60.5 44.5 60.5 44.5 56.5 40.5 56.5"/>
        <polygon id="_5" data-name="5" class="cls-5" points="120.5 32.5 120.5 28.5 116.5 28.5 116.5 24.5 108.5 24.5 108.5 28.5 104.5 28.5 104.5 32.5 100.5 32.5 100.5 36.5 104.5 36.5 104.5 40.5 108.5 40.5 108.5 44.5 116.5 44.5 116.5 40.5 120.5 40.5 120.5 36.5 124.5 36.5 124.5 32.5 120.5 32.5"/>
        <polygon id="_4" data-name="4" class="cls-5" points="100.5 20.5 100.5 16.5 96.5 16.5 96.5 12.5 88.5 12.5 88.5 16.5 84.5 16.5 84.5 20.5 80.5 20.5 80.5 24.5 84.5 24.5 84.5 28.5 88.5 28.5 88.5 32.5 96.5 32.5 96.5 28.5 100.5 28.5 100.5 24.5 104.5 24.5 104.5 20.5 100.5 20.5"/>
        <polygon id="_3" data-name="3" class="cls-5" points="80.5 8.5 80.5 4.5 76.5 4.5 76.5 .5 68.5 .5 68.5 4.5 64.5 4.5 64.5 8.5 60.5 8.5 60.5 12.5 64.5 12.5 64.5 16.5 68.5 16.5 68.5 20.5 76.5 20.5 76.5 16.5 80.5 16.5 80.5 12.5 84.5 12.5 84.5 8.5 80.5 8.5"/>
        <polygon id="_2" data-name="2" class="cls-5" points="60.5 20.5 60.5 16.5 56.5 16.5 56.5 12.5 48.5 12.5 48.5 16.5 44.5 16.5 44.5 20.5 40.5 20.5 40.5 24.5 44.5 24.5 44.5 28.5 48.5 28.5 48.5 32.5 56.5 32.5 56.5 28.5 60.5 28.5 60.5 24.5 64.5 24.5 64.5 20.5 60.5 20.5"/>
        <polygon id="_1" data-name="1" class="cls-5" points="40.5 32.5 40.5 28.5 36.5 28.5 36.5 24.5 28.5 24.5 28.5 28.5 24.5 28.5 24.5 32.5 20.5 32.5 20.5 36.5 24.5 36.5 24.5 40.5 28.5 40.5 28.5 44.5 36.5 44.5 36.5 40.5 40.5 40.5 40.5 36.5 44.5 36.5 44.5 32.5 40.5 32.5"/>
      </g>
      <g id="TotalMovesFill">
        <polygon id="_40-2" data-name="40" class="cls-4" points="80.5 176.5 80.5 172.5 76.5 172.5 76.5 168.5 68.5 168.5 68.5 172.5 64.5 172.5 64.5 176.5 60.5 176.5 60.5 180.5 64.5 180.5 64.5 184.5 68.5 184.5 68.5 188.5 76.5 188.5 76.5 184.5 80.5 184.5 80.5 180.5 84.5 180.5 84.5 176.5 80.5 176.5"/>
        <polygon id="_39-2" data-name="39" class="cls-4" points="100.5 164.5 100.5 160.5 96.5 160.5 96.5 156.5 88.5 156.5 88.5 160.5 84.5 160.5 84.5 164.5 80.5 164.5 80.5 168.5 84.5 168.5 84.5 172.5 88.5 172.5 88.5 176.5 96.5 176.5 96.5 172.5 100.5 172.5 100.5 168.5 104.5 168.5 104.5 164.5 100.5 164.5"/>
        <polygon id="_38-2" data-name="38" class="cls-4" points="80.5 152.5 80.5 148.5 76.5 148.5 76.5 144.5 68.5 144.5 68.5 148.5 64.5 148.5 64.5 152.5 60.5 152.5 60.5 156.5 64.5 156.5 64.5 160.5 68.5 160.5 68.5 164.5 76.5 164.5 76.5 160.5 80.5 160.5 80.5 156.5 84.5 156.5 84.5 152.5 80.5 152.5"/>
        <polygon id="_37-2" data-name="37" class="cls-4" points="60.5 164.5 60.5 160.5 56.5 160.5 56.5 156.5 48.5 156.5 48.5 160.5 44.5 160.5 44.5 164.5 40.5 164.5 40.5 168.5 44.5 168.5 44.5 172.5 48.5 172.5 48.5 176.5 56.5 176.5 56.5 172.5 60.5 172.5 60.5 168.5 64.5 168.5 64.5 164.5 60.5 164.5"/>
        <polygon id="_36-2" data-name="36" class="cls-4" points="120.5 152.5 120.5 148.5 116.5 148.5 116.5 144.5 108.5 144.5 108.5 148.5 104.5 148.5 104.5 152.5 100.5 152.5 100.5 156.5 104.5 156.5 104.5 160.5 108.5 160.5 108.5 164.5 116.5 164.5 116.5 160.5 120.5 160.5 120.5 156.5 124.5 156.5 124.5 152.5 120.5 152.5"/>
        <polygon id="_35-2" data-name="35" class="cls-4" points="100.5 140.5 100.5 136.5 96.5 136.5 96.5 132.5 88.5 132.5 88.5 136.5 84.5 136.5 84.5 140.5 80.5 140.5 80.5 144.5 84.5 144.5 84.5 148.5 88.5 148.5 88.5 152.5 96.5 152.5 96.5 148.5 100.5 148.5 100.5 144.5 104.5 144.5 104.5 140.5 100.5 140.5"/>
        <polygon id="_34-2" data-name="34" class="cls-4" points="80.5 128.5 80.5 124.5 76.5 124.5 76.5 120.5 68.5 120.5 68.5 124.5 64.5 124.5 64.5 128.5 60.5 128.5 60.5 132.5 64.5 132.5 64.5 136.5 68.5 136.5 68.5 140.5 76.5 140.5 76.5 136.5 80.5 136.5 80.5 132.5 84.5 132.5 84.5 128.5 80.5 128.5"/>
        <polygon id="_33-2" data-name="33" class="cls-4" points="60.5 140.5 60.5 136.5 56.5 136.5 56.5 132.5 48.5 132.5 48.5 136.5 44.5 136.5 44.5 140.5 40.5 140.5 40.5 144.5 44.5 144.5 44.5 148.5 48.5 148.5 48.5 152.5 56.5 152.5 56.5 148.5 60.5 148.5 60.5 144.5 64.5 144.5 64.5 140.5 60.5 140.5"/>
        <polygon id="_32-2" data-name="32" class="cls-4" points="40.5 152.5 40.5 148.5 36.5 148.5 36.5 144.5 28.5 144.5 28.5 148.5 24.5 148.5 24.5 152.5 20.5 152.5 20.5 156.5 24.5 156.5 24.5 160.5 28.5 160.5 28.5 164.5 36.5 164.5 36.5 160.5 40.5 160.5 40.5 156.5 44.5 156.5 44.5 152.5 40.5 152.5"/>
        <polygon id="_31-2" data-name="31" class="cls-4" points="140.5 140.5 140.5 136.5 136.5 136.5 136.5 132.5 128.5 132.5 128.5 136.5 124.5 136.5 124.5 140.5 120.5 140.5 120.5 144.5 124.5 144.5 124.5 148.5 128.5 148.5 128.5 152.5 136.5 152.5 136.5 148.5 140.5 148.5 140.5 144.5 144.5 144.5 144.5 140.5 140.5 140.5"/>
        <polygon id="_30-2" data-name="30" class="cls-4" points="120.5 128.5 120.5 124.5 116.5 124.5 116.5 120.5 108.5 120.5 108.5 124.5 104.5 124.5 104.5 128.5 100.5 128.5 100.5 132.5 104.5 132.5 104.5 136.5 108.5 136.5 108.5 140.5 116.5 140.5 116.5 136.5 120.5 136.5 120.5 132.5 124.5 132.5 124.5 128.5 120.5 128.5"/>
        <polygon id="_29-2" data-name="29" class="cls-4" points="100.5 116.5 100.5 112.5 96.5 112.5 96.5 108.5 88.5 108.5 88.5 112.5 84.5 112.5 84.5 116.5 80.5 116.5 80.5 120.5 84.5 120.5 84.5 124.5 88.5 124.5 88.5 128.5 96.5 128.5 96.5 124.5 100.5 124.5 100.5 120.5 104.5 120.5 104.5 116.5 100.5 116.5"/>
        <polygon id="_28-2" data-name="28" class="cls-4" points="80.5 104.5 80.5 100.5 76.5 100.5 76.5 96.5 68.5 96.5 68.5 100.5 64.5 100.5 64.5 104.5 60.5 104.5 60.5 108.5 64.5 108.5 64.5 112.5 68.5 112.5 68.5 116.5 76.5 116.5 76.5 112.5 80.5 112.5 80.5 108.5 84.5 108.5 84.5 104.5 80.5 104.5"/>
        <polygon id="_27-2" data-name="27" class="cls-4" points="60.5 116.5 60.5 112.5 56.5 112.5 56.5 108.5 48.5 108.5 48.5 112.5 44.5 112.5 44.5 116.5 40.5 116.5 40.5 120.5 44.5 120.5 44.5 124.5 48.5 124.5 48.5 128.5 56.5 128.5 56.5 124.5 60.5 124.5 60.5 120.5 64.5 120.5 64.5 116.5 60.5 116.5"/>
        <polygon id="_26-2" data-name="26" class="cls-4" points="40.5 128.5 40.5 124.5 36.5 124.5 36.5 120.5 28.5 120.5 28.5 124.5 24.5 124.5 24.5 128.5 20.5 128.5 20.5 132.5 24.5 132.5 24.5 136.5 28.5 136.5 28.5 140.5 36.5 140.5 36.5 136.5 40.5 136.5 40.5 132.5 44.5 132.5 44.5 128.5 40.5 128.5"/>
        <polygon id="_25-2" data-name="25" class="cls-4" points="20.5 140.5 20.5 136.5 16.5 136.5 16.5 132.5 8.5 132.5 8.5 136.5 4.5 136.5 4.5 140.5 .5 140.5 .5 144.5 4.5 144.5 4.5 148.5 8.5 148.5 8.5 152.5 16.5 152.5 16.5 148.5 20.5 148.5 20.5 144.5 24.5 144.5 24.5 140.5 20.5 140.5"/>
        <polygon id="_24-2" data-name="24" class="cls-4" points="140.5 116.5 140.5 112.5 136.5 112.5 136.5 108.5 128.5 108.5 128.5 112.5 124.5 112.5 124.5 116.5 120.5 116.5 120.5 120.5 124.5 120.5 124.5 124.5 128.5 124.5 128.5 128.5 136.5 128.5 136.5 124.5 140.5 124.5 140.5 120.5 144.5 120.5 144.5 116.5 140.5 116.5"/>
        <polygon id="_23-2" data-name="23" class="cls-4" points="120.5 104.5 120.5 100.5 116.5 100.5 116.5 96.5 108.5 96.5 108.5 100.5 104.5 100.5 104.5 104.5 100.5 104.5 100.5 108.5 104.5 108.5 104.5 112.5 108.5 112.5 108.5 116.5 116.5 116.5 116.5 112.5 120.5 112.5 120.5 108.5 124.5 108.5 124.5 104.5 120.5 104.5"/>
        <polygon id="_22-2" data-name="22" class="cls-4" points="100.5 92.5 100.5 88.5 96.5 88.5 96.5 84.5 88.5 84.5 88.5 88.5 84.5 88.5 84.5 92.5 80.5 92.5 80.5 96.5 84.5 96.5 84.5 100.5 88.5 100.5 88.5 104.5 96.5 104.5 96.5 100.5 100.5 100.5 100.5 96.5 104.5 96.5 104.5 92.5 100.5 92.5"/>
        <polygon id="_21-2" data-name="21" class="cls-4" points="80.5 80.5 80.5 76.5 76.5 76.5 76.5 72.5 68.5 72.5 68.5 76.5 64.5 76.5 64.5 80.5 60.5 80.5 60.5 84.5 64.5 84.5 64.5 88.5 68.5 88.5 68.5 92.5 76.5 92.5 76.5 88.5 80.5 88.5 80.5 84.5 84.5 84.5 84.5 80.5 80.5 80.5"/>
        <polygon id="_20-2" data-name="20" class="cls-4" points="60.5 92.5 60.5 88.5 56.5 88.5 56.5 84.5 48.5 84.5 48.5 88.5 44.5 88.5 44.5 92.5 40.5 92.5 40.5 96.5 44.5 96.5 44.5 100.5 48.5 100.5 48.5 104.5 56.5 104.5 56.5 100.5 60.5 100.5 60.5 96.5 64.5 96.5 64.5 92.5 60.5 92.5"/>
        <polygon id="_19-2" data-name="19" class="cls-4" points="40.5 104.5 40.5 100.5 36.5 100.5 36.5 96.5 28.5 96.5 28.5 100.5 24.5 100.5 24.5 104.5 20.5 104.5 20.5 108.5 24.5 108.5 24.5 112.5 28.5 112.5 28.5 116.5 36.5 116.5 36.5 112.5 40.5 112.5 40.5 108.5 44.5 108.5 44.5 104.5 40.5 104.5"/>
        <polygon id="_18-2" data-name="18" class="cls-4" points="20.5 116.5 20.5 112.5 16.5 112.5 16.5 108.5 8.5 108.5 8.5 112.5 4.5 112.5 4.5 116.5 .5 116.5 .5 120.5 4.5 120.5 4.5 124.5 8.5 124.5 8.5 128.5 16.5 128.5 16.5 124.5 20.5 124.5 20.5 120.5 24.5 120.5 24.5 116.5 20.5 116.5"/>
        <polygon id="_17-2" data-name="17" class="cls-4" points="140.5 92.5 140.5 88.5 136.5 88.5 136.5 84.5 128.5 84.5 128.5 88.5 124.5 88.5 124.5 92.5 120.5 92.5 120.5 96.5 124.5 96.5 124.5 100.5 128.5 100.5 128.5 104.5 136.5 104.5 136.5 100.5 140.5 100.5 140.5 96.5 144.5 96.5 144.5 92.5 140.5 92.5"/>
        <polygon id="_16-2" data-name="16" class="cls-4" points="120.5 80.5 120.5 76.5 116.5 76.5 116.5 72.5 108.5 72.5 108.5 76.5 104.5 76.5 104.5 80.5 100.5 80.5 100.5 84.5 104.5 84.5 104.5 88.5 108.5 88.5 108.5 92.5 116.5 92.5 116.5 88.5 120.5 88.5 120.5 84.5 124.5 84.5 124.5 80.5 120.5 80.5"/>
        <polygon id="_15-2" data-name="15" class="cls-4" points="100.5 68.5 100.5 64.5 96.5 64.5 96.5 60.5 88.5 60.5 88.5 64.5 84.5 64.5 84.5 68.5 80.5 68.5 80.5 72.5 84.5 72.5 84.5 76.5 88.5 76.5 88.5 80.5 96.5 80.5 96.5 76.5 100.5 76.5 100.5 72.5 104.5 72.5 104.5 68.5 100.5 68.5"/>
        <polygon id="_14-2" data-name="14" class="cls-4" points="80.5 56.5 80.5 52.5 76.5 52.5 76.5 48.5 68.5 48.5 68.5 52.5 64.5 52.5 64.5 56.5 60.5 56.5 60.5 60.5 64.5 60.5 64.5 64.5 68.5 64.5 68.5 68.5 76.5 68.5 76.5 64.5 80.5 64.5 80.5 60.5 84.5 60.5 84.5 56.5 80.5 56.5"/>
        <polygon id="_13-2" data-name="13" class="cls-4" points="60.5 68.5 60.5 64.5 56.5 64.5 56.5 60.5 48.5 60.5 48.5 64.5 44.5 64.5 44.5 68.5 40.5 68.5 40.5 72.5 44.5 72.5 44.5 76.5 48.5 76.5 48.5 80.5 56.5 80.5 56.5 76.5 60.5 76.5 60.5 72.5 64.5 72.5 64.5 68.5 60.5 68.5"/>
        <polygon id="_12-2" data-name="12" class="cls-4" points="40.5 80.5 40.5 76.5 36.5 76.5 36.5 72.5 28.5 72.5 28.5 76.5 24.5 76.5 24.5 80.5 20.5 80.5 20.5 84.5 24.5 84.5 24.5 88.5 28.5 88.5 28.5 92.5 36.5 92.5 36.5 88.5 40.5 88.5 40.5 84.5 44.5 84.5 44.5 80.5 40.5 80.5"/>
        <polygon id="_11-2" data-name="11" class="cls-4" points="20.5 92.5 20.5 88.5 16.5 88.5 16.5 84.5 8.5 84.5 8.5 88.5 4.5 88.5 4.5 92.5 .5 92.5 .5 96.5 4.5 96.5 4.5 100.5 8.5 100.5 8.5 104.5 16.5 104.5 16.5 100.5 20.5 100.5 20.5 96.5 24.5 96.5 24.5 92.5 20.5 92.5"/>
        <polygon id="_10-2" data-name="10" class="cls-4" points="120.5 56.5 120.5 52.5 116.5 52.5 116.5 48.5 108.5 48.5 108.5 52.5 104.5 52.5 104.5 56.5 100.5 56.5 100.5 60.5 104.5 60.5 104.5 64.5 108.5 64.5 108.5 68.5 116.5 68.5 116.5 64.5 120.5 64.5 120.5 60.5 124.5 60.5 124.5 56.5 120.5 56.5"/>
        <polygon id="_9-2" data-name="9" class="cls-4" points="100.5 44.5 100.5 40.5 96.5 40.5 96.5 36.5 88.5 36.5 88.5 40.5 84.5 40.5 84.5 44.5 80.5 44.5 80.5 48.5 84.5 48.5 84.5 52.5 88.5 52.5 88.5 56.5 96.5 56.5 96.5 52.5 100.5 52.5 100.5 48.5 104.5 48.5 104.5 44.5 100.5 44.5"/>
        <polygon id="_8-2" data-name="8" class="cls-4" points="80.5 32.5 80.5 28.5 76.5 28.5 76.5 24.5 68.5 24.5 68.5 28.5 64.5 28.5 64.5 32.5 60.5 32.5 60.5 36.5 64.5 36.5 64.5 40.5 68.5 40.5 68.5 44.5 76.5 44.5 76.5 40.5 80.5 40.5 80.5 36.5 84.5 36.5 84.5 32.5 80.5 32.5"/>
        <polygon id="_7-2" data-name="7" class="cls-4" points="60.5 44.5 60.5 40.5 56.5 40.5 56.5 36.5 48.5 36.5 48.5 40.5 44.5 40.5 44.5 44.5 40.5 44.5 40.5 48.5 44.5 48.5 44.5 52.5 48.5 52.5 48.5 56.5 56.5 56.5 56.5 52.5 60.5 52.5 60.5 48.5 64.5 48.5 64.5 44.5 60.5 44.5"/>
        <polygon id="_6-2" data-name="6" class="cls-4" points="40.5 56.5 40.5 52.5 36.5 52.5 36.5 48.5 28.5 48.5 28.5 52.5 24.5 52.5 24.5 56.5 20.5 56.5 20.5 60.5 24.5 60.5 24.5 64.5 28.5 64.5 28.5 68.5 36.5 68.5 36.5 64.5 40.5 64.5 40.5 60.5 44.5 60.5 44.5 56.5 40.5 56.5"/>
        <polygon id="_5-2" data-name="5" class="cls-4" points="120.5 32.5 120.5 28.5 116.5 28.5 116.5 24.5 108.5 24.5 108.5 28.5 104.5 28.5 104.5 32.5 100.5 32.5 100.5 36.5 104.5 36.5 104.5 40.5 108.5 40.5 108.5 44.5 116.5 44.5 116.5 40.5 120.5 40.5 120.5 36.5 124.5 36.5 124.5 32.5 120.5 32.5"/>
        <polygon id="_4-2" data-name="4" class="cls-4" points="100.5 20.5 100.5 16.5 96.5 16.5 96.5 12.5 88.5 12.5 88.5 16.5 84.5 16.5 84.5 20.5 80.5 20.5 80.5 24.5 84.5 24.5 84.5 28.5 88.5 28.5 88.5 32.5 96.5 32.5 96.5 28.5 100.5 28.5 100.5 24.5 104.5 24.5 104.5 20.5 100.5 20.5"/>
        <polygon id="_3-2" data-name="3" class="cls-4" points="80.5 8.5 80.5 4.5 76.5 4.5 76.5 .5 68.5 .5 68.5 4.5 64.5 4.5 64.5 8.5 60.5 8.5 60.5 12.5 64.5 12.5 64.5 16.5 68.5 16.5 68.5 20.5 76.5 20.5 76.5 16.5 80.5 16.5 80.5 12.5 84.5 12.5 84.5 8.5 80.5 8.5"/>
        <polygon id="_2-2" data-name="2" class="cls-4" points="60.5 20.5 60.5 16.5 56.5 16.5 56.5 12.5 48.5 12.5 48.5 16.5 44.5 16.5 44.5 20.5 40.5 20.5 40.5 24.5 44.5 24.5 44.5 28.5 48.5 28.5 48.5 32.5 56.5 32.5 56.5 28.5 60.5 28.5 60.5 24.5 64.5 24.5 64.5 20.5 60.5 20.5"/>
        <polygon id="_1-2" data-name="1" class="cls-4" points="40.5 32.5 40.5 28.5 36.5 28.5 36.5 24.5 28.5 24.5 28.5 28.5 24.5 28.5 24.5 32.5 20.5 32.5 20.5 36.5 24.5 36.5 24.5 40.5 28.5 40.5 28.5 44.5 36.5 44.5 36.5 40.5 40.5 40.5 40.5 36.5 44.5 36.5 44.5 32.5 40.5 32.5"/>
      </g>
      <g id="TOTALMOVEStext">
        <path class="cls-4" d="M20.83,225.75v-10.5h-3.5v-1.75h8.75v1.75h-3.5v10.5h-1.75Z"/>
        <path class="cls-4" d="M27.83,224v-8.75h1.75v8.75h-1.75Zm1.75-8.75v-1.75h5.25v1.75h-5.25Zm0,10.5v-1.75h5.25v1.75h-5.25Zm5.25-1.75v-8.75h1.75v8.75h-1.75Z"/>
        <path class="cls-4" d="M41.83,225.75v-10.5h-3.5v-1.75h8.75v1.75h-3.5v10.5h-1.75Z"/>
        <path class="cls-4" d="M48.83,225.75v-10.5h1.75v1.75h5.25v-1.75h1.75v10.5h-1.75v-7h-5.25v7h-1.75Zm1.75-10.5v-1.75h5.25v1.75h-5.25Z"/>
        <path class="cls-4" d="M59.33,225.75v-12.25h1.75v10.5h7v1.75h-8.75Z"/>
        <path class="cls-4" d="M76.83,225.75v-12.25h1.75v1.75h1.75v1.75h-1.75v8.75h-1.75Zm3.5-7v-1.75h1.75v1.75h-1.75Zm3.5,7v-8.75h-1.75v-1.75h1.75v-1.75h1.75v12.25h-1.75Z"/>
        <path class="cls-4" d="M87.33,224v-8.75h1.75v8.75h-1.75Zm1.75-8.75v-1.75h5.25v1.75h-5.25Zm0,10.5v-1.75h5.25v1.75h-5.25Zm5.25-1.75v-8.75h1.75v8.75h-1.75Z"/>
        <path class="cls-4" d="M97.83,220.5v-7h1.75v7h-1.75Zm1.75,3.5v-3.5h1.75v3.5h-1.75Zm1.75,1.75v-1.75h1.75v1.75h-1.75Zm1.75-1.75v-3.5h1.75v3.5h-1.75Zm1.75-3.5v-7h1.75v7h-1.75Z"/>
        <path class="cls-4" d="M108.33,225.75v-12.25h8.75v1.75h-7v1.75h3.5v1.75h-3.5v5.25h7v1.75h-8.75Z"/>
        <path class="cls-4" d="M118.83,217v-1.75h1.75v1.75h-1.75Zm0,7v-1.75h1.75v1.75h-1.75Zm1.75-8.75v-1.75h7v1.75h-7Zm0,3.5v-1.75h5.25v1.75h-5.25Zm0,7v-1.75h5.25v1.75h-5.25Zm5.25-1.75v-5.25h1.75v5.25h-1.75Z"/>
      </g>
    </g>
  </g>
</svg>