<svg width="904" height="456" viewBox="0 0 904 456" fill="none" xmlns="http://www.w3.org/2000/svg">
<rect x="6" y="4" width="892" height="6" fill="#E4E4E4"/>
<rect x="4" y="6" width="6" height="444" fill="#E4E4E4"/>
<rect y="4" width="4" height="448" fill="black"/>
<rect x="4" y="452" width="896" height="4" fill="black"/>
<rect x="2" y="2" width="4" height="4" fill="black"/>
<rect x="4" width="896" height="4" fill="black"/>
<rect x="2" y="450" width="4" height="4" fill="black"/>
<rect x="898" y="450" width="4" height="4" fill="black"/>
<rect x="900" y="4" width="4" height="448" fill="black"/>
<rect x="898" y="2" width="4" height="4" fill="black"/>
<rect x="9" y="446" width="889" height="2" fill="#ADADAD"/>
<rect x="6" y="448" width="892" height="4" fill="#ADADAD"/>
<rect x="896" y="6" width="4" height="444" fill="#ADADAD"/>
<rect x="894" y="8" width="4" height="443" fill="#ADADAD"/>
<rect x="10" y="10" width="884" height="436" fill="white"/>
</svg>
