<svg width="452" height="225" viewBox="0 0 452 225" fill="none" xmlns="http://www.w3.org/2000/svg">
<rect x="6" y="4" width="440" height="6" fill="#E4E4E4"/>
<rect x="4" y="6" width="6" height="213" fill="#E4E4E4"/>
<rect y="4" width="4" height="217" fill="black"/>
<rect x="448" y="4" width="4" height="217" fill="black"/>
<rect x="2" y="2" width="4" height="4" fill="black"/>
<rect x="4" width="444" height="4" fill="black"/>
<rect x="4" y="221" width="444" height="4" fill="black"/>
<rect x="2" y="219" width="4" height="4" fill="black"/>
<rect x="446" y="2" width="4" height="4" fill="black"/>
<rect x="446" y="219" width="4" height="4" fill="black"/>
<rect x="9" y="215" width="435" height="2" fill="#ADADAD"/>
<rect x="6" y="217" width="436" height="4" fill="#ADADAD"/>
<rect x="444" y="6" width="4" height="213" fill="#ADADAD"/>
<rect x="442" y="8" width="4" height="213" fill="#ADADAD"/>
<rect x="10" y="10" width="432" height="205" fill="white"/>
</svg>
