<svg width="390" height="240" viewBox="0 0 390 240" fill="none" xmlns="http://www.w3.org/2000/svg">
<rect x="10" y="10" width="370" height="220" fill="white"/>
<rect x="5" width="381" height="4" fill="black"/>
<rect x="5" width="381" height="4" fill="black"/>
<rect x="5" width="381" height="4" fill="black"/>
<rect x="5" y="236" width="381" height="4" fill="black"/>
<rect x="5" y="236" width="381" height="4" fill="black"/>
<rect x="5" y="236" width="381" height="4" fill="black"/>
<rect y="4" width="4" height="232" fill="black"/>
<rect y="4" width="4" height="232" fill="black"/>
<rect y="4" width="4" height="232" fill="black"/>
<rect x="386" y="4" width="4" height="232" fill="black"/>
<rect x="386" y="4" width="4" height="232" fill="black"/>
<rect x="386" y="4" width="4" height="232" fill="black"/>
<rect x="2" y="2" width="4" height="4" fill="black"/>
<rect x="2" y="2" width="4" height="4" fill="black"/>
<rect x="2" y="2" width="4" height="4" fill="black"/>
<rect x="384" y="2" width="4" height="4" fill="black"/>
<rect x="384" y="2" width="4" height="4" fill="black"/>
<rect x="384" y="2" width="4" height="4" fill="black"/>
<rect x="384" y="234" width="4" height="4" fill="black"/>
<rect x="384" y="234" width="4" height="4" fill="black"/>
<rect x="384" y="234" width="4" height="4" fill="black"/>
<rect x="2" y="234" width="4" height="4" fill="black"/>
<rect x="2" y="234" width="4" height="4" fill="black"/>
<rect x="2" y="234" width="4" height="4" fill="black"/>
<rect x="6" y="4" width="378" height="6" fill="#E4E4E4"/>
<rect x="4" y="6" width="6" height="228" fill="#E4E4E4"/>
<rect x="8" y="230" width="372" height="2" fill="#ADADAD"/>
<rect x="6" y="232" width="378" height="4" fill="#ADADAD"/>
<rect x="382" y="6" width="4" height="228" fill="#ADADAD"/>
<rect x="380" y="8" width="4" height="226" fill="#ADADAD"/>
</svg>
